<?xml version="1.0" standalone="no"?>
<!DOCTYPE svg PUBLIC "-//W3C//DTD SVG 20010904//EN"
 "http://www.w3.org/TR/2001/REC-SVG-20010904/DTD/svg10.dtd">
<svg version="1.0" xmlns="http://www.w3.org/2000/svg"
 width="300.000000pt" height="300.000000pt" viewBox="0 0 300.000000 300.000000"
 preserveAspectRatio="xMidYMid meet">
<metadata>
Created by potrace 1.14, written by Peter Selinger 2001-2017
</metadata>
<g transform="translate(0.000000,300.000000) scale(0.100000,-0.100000)"
fill="#000000" stroke="none">
<path d="M320 1496 l0 -796 105 0 105 0 0 310 0 310 120 0 120 0 248 -310 247
-310 138 0 c75 0 137 4 137 8 0 4 -123 158 -274 342 l-273 335 64 35 c162 90
252 243 253 430 1 208 -116 357 -327 416 -45 13 -124 18 -360 21 l-303 5 0
-796z m611 570 c58 -21 113 -75 135 -131 22 -60 16 -192 -13 -255 -26 -57 -76
-108 -130 -132 -45 -20 -190 -37 -315 -38 l-78 0 0 291 0 291 178 -4 c133 -4
188 -9 223 -22z"/>
<path d="M1500 2274 c0 -9 120 -367 268 -795 l267 -779 117 0 116 0 25 72 c13
40 135 395 271 789 135 394 246 719 246 723 0 3 -49 6 -109 6 l-109 0 -212
-637 c-117 -351 -216 -642 -220 -646 -4 -5 -104 281 -222 635 l-215 643 -111
3 c-99 2 -112 1 -112 -14z"/>
</g>
</svg>
